<svg width="6" height="5" viewBox="0 0 6 5" fill="none" xmlns="https://www.w3.org/2000/svg">
<path d="M3 4.49999C2.92825 4.49999 2.85865 4.48472 2.79121 4.45419C2.72377 4.42365 2.6678 4.38294 2.62332 4.33205L0.147982 1.5229C0.0493271 1.41094 0 1.26845 0 1.09542C0 0.92239 0.0493271 0.779897 0.147982 0.667938C0.246637 0.555979 0.372197 0.5 0.524664 0.5C0.67713 0.5 0.802691 0.555979 0.901345 0.667938L3 3.04961L5.09865 0.667938C5.19731 0.555979 5.32287 0.5 5.47534 0.5C5.6278 0.5 5.75336 0.555979 5.85202 0.667938C5.95067 0.779897 6 0.92239 6 1.09542C6 1.26845 5.95067 1.41094 5.85202 1.5229L3.37668 4.33205C3.32287 4.39312 3.26457 4.43648 3.20179 4.46213C3.13901 4.48778 3.07175 4.5004 3 4.49999Z" fill="#242431"/>
</svg>
