<svg width="60%" id="Icons" viewBox="0 0 24 24" xmlns="https://www.w3.org/2000/svg"><defs><style>.cls-1{fill:#232323;}</style></defs><path class="cls-1" d="M12,0a12,12,0,0,0,0,24,11.868,11.868,0,0,0,4.723-.978l3.548.887a3.062,3.062,0,0,0,.738.091,3,3,0,0,0,2.9-3.729l-.887-3.548A11.868,11.868,0,0,0,24,12,12.013,12.013,0,0,0,12,0Zm9,16.873.97,3.883a1,1,0,0,1-1.212,1.212L16.873,21a1.01,1.01,0,0,0-.243-.03,1,1,0,0,0-.422.093A9.9,9.9,0,0,1,12,22,10,10,0,1,1,22,12a9.9,9.9,0,0,1-.939,4.208A1,1,0,0,0,21,16.873Z"/><path class="cls-1" d="M8,9a3,3,0,1,0,3,3A3,3,0,0,0,8,9Zm0,4a1,1,0,1,1,1-1A1,1,0,0,1,8,13Z"/><path class="cls-1" d="M16,9a3,3,0,1,0,3,3A3,3,0,0,0,16,9Zm0,4a1,1,0,1,1,1-1A1,1,0,0,1,16,13Z"/></svg>