
<svg width="1em" height="1em" viewBox="0 0 13 13" fill="none" xmlns="https://www.w3.org/2000/svg">
<g clip-path="url(#clip0_59_17)">
<path d="M6.5 0.8125C5.37512 0.8125 4.2755 1.14607 3.34019 1.77102C2.40489 2.39597 1.67591 3.28423 1.24543 4.32349C0.81496 5.36274 0.702329 6.50631 0.921782 7.60958C1.14124 8.71284 1.68292 9.72626 2.47833 10.5217C3.27374 11.3171 4.28716 11.8588 5.39042 12.0782C6.49369 12.2977 7.63726 12.185 8.67651 11.7546C9.71577 11.3241 10.604 10.5951 11.229 9.65981C11.8539 8.7245 12.1875 7.62488 12.1875 6.5C12.1875 4.99158 11.5883 3.54494 10.5217 2.47833C9.45506 1.41172 8.00842 0.8125 6.5 0.8125ZM5.6875 8.77094L3.65625 6.73969L4.30219 6.09375L5.6875 7.47906L8.69781 4.46875L9.34619 5.11306L5.6875 8.77094Z" fill="currentColor"/>
</g>
<defs>
<clipPath id="clip0_59_17">
<rect width="1em" height="1em" fill="white"/>
</clipPath>
</defs>
</svg>
