<svg  width="65%" version="1.1" viewBox="0 0 48 48" xmlns="https://www.w3.org/2000/svg" xmlns:xlink="https://www.w3.org/1999/xlink"><title/><g fill="none" fill-rule="evenodd" id="arrow-return" stroke="none" stroke-width="1"><path d="M38,6.5 L34,6.5 C33.7238576,6.5 33.5,6.72385763 33.5,7 L33.5,32.5 C33.5,35.8685273 30.8049786,38.5 27.5,38.5 L27.2847529,38.4960227 C24.2077122,38.3823002 21.5,35.842423 21.5,32.5 L21.5,19.5 L27,19.5 C27.3993477,19.5 27.6375434,19.0549273 27.4160251,18.7226499 L19.4160251,6.7226499 C19.2181141,6.42578337 18.7818859,6.42578337 18.5839749,6.7226499 L10.5839749,18.7226499 L10.5434343,18.7953753 C10.3973068,19.1162383 10.6291771,19.5 11,19.5 L16.5,19.5 L16.5,32.5 C16.5,38.7294385 21.6099938,43.5 27.5,43.5 C33.5021418,43.5 38.5,38.63729 38.5,32.5 L38.5,7 C38.5,6.72385763 38.2761424,6.5 38,6.5 Z" fill="#000000" fill-rule="nonzero" id="Path" transform="translate(24.499580, 25.000000) rotate(-90.000000) translate(-24.499580, -25.000000) "/></g></svg>