<svg width="100%" height="17" viewBox="0 0 22 17" fill="none" xmlns="https://www.w3.org/2000/svg">
<g clip-path="url(#clip0_4_2)">
<path d="M5 16.5C4.16667 16.5 3.45833 16.2083 2.875 15.625C2.29167 15.0417 2 14.3333 2 13.5H0V2.5C0 1.95 0.196 1.479 0.588 1.087C0.98 0.695002 1.45067 0.499335 2 0.500002H16V4.5H19L22 8.5V13.5H20C20 14.3333 19.7083 15.0417 19.125 15.625C18.5417 16.2083 17.8333 16.5 17 16.5C16.1667 16.5 15.4583 16.2083 14.875 15.625C14.2917 15.0417 14 14.3333 14 13.5H8C8 14.3333 7.70833 15.0417 7.125 15.625C6.54167 16.2083 5.83333 16.5 5 16.5ZM5 14.5C5.28333 14.5 5.521 14.404 5.713 14.212C5.905 14.02 6.00067 13.7827 6 13.5C6 13.2167 5.904 12.979 5.712 12.787C5.52 12.595 5.28267 12.4993 5 12.5C4.71667 12.5 4.479 12.596 4.287 12.788C4.095 12.98 3.99933 13.2173 4 13.5C4 13.7833 4.096 14.021 4.288 14.213C4.48 14.405 4.71733 14.5007 5 14.5ZM2 11.5H2.8C3.08333 11.2 3.40833 10.9583 3.775 10.775C4.14167 10.5917 4.55 10.5 5 10.5C5.45 10.5 5.85833 10.5917 6.225 10.775C6.59167 10.9583 6.91667 11.2 7.2 11.5H14V2.5H2V11.5ZM17 14.5C17.2833 14.5 17.521 14.404 17.713 14.212C17.905 14.02 18.0007 13.7827 18 13.5C18 13.2167 17.904 12.979 17.712 12.787C17.52 12.595 17.2827 12.4993 17 12.5C16.7167 12.5 16.479 12.596 16.287 12.788C16.095 12.98 15.9993 13.2173 16 13.5C16 13.7833 16.096 14.021 16.288 14.213C16.48 14.405 16.7173 14.5007 17 14.5ZM16 9.5H20.25L18 6.5H16V9.5Z" fill="#242431"/>
</g>
<defs>
<clipPath id="clip0_4_2">
<rect width="22" height="16" fill="white" transform="translate(0 0.5)"/>
</clipPath>
</defs>
</svg>
