<svg
    width="1em"
    height="1em"
    viewBox="0 0 20 20"
    fill="none"
    xmlns="https://www.w3.org/2000/svg"
>
    <path
        d="M9.55765 1.36142C9.69688 0.932902 10.3031 0.932902 10.4424 1.36142L12.1407 6.58844C12.203 6.78008 12.3816 6.90983 12.5831 6.90983H18.0791C18.5297 6.90983 18.717 7.4864 18.3525 7.75123L13.9061 10.9817C13.7431 11.1002 13.6749 11.3101 13.7371 11.5017L15.4355 16.7288C15.5747 17.1573 15.0843 17.5136 14.7198 17.2488L10.2734 14.0183C10.1104 13.8998 9.88963 13.8998 9.72661 14.0183L5.28024 17.2488C4.91572 17.5136 4.42527 17.1573 4.5645 16.7288L6.26286 11.5017C6.32513 11.3101 6.25692 11.1002 6.0939 10.9817L1.64753 7.75123C1.28301 7.4864 1.47035 6.90983 1.92092 6.90983H7.41693C7.61843 6.90983 7.79702 6.78008 7.85929 6.58844L9.55765 1.36142Z"
        fill="#DAD9EC"
    />
    <path
        d="M10 1.04004C9.81363 1.04003 9.62725 1.14716 9.55764 1.36143L7.85927 6.58845C7.79701 6.78009 7.61842 6.90984 7.41692 6.90984H1.9209C1.47033 6.90984 1.283 7.4864 1.64751 7.75124L6.09389 10.9817C6.2569 11.1002 6.32512 11.3101 6.26285 11.5017L4.56449 16.7288C4.42525 17.1573 4.91571 17.5136 5.28023 17.2488L9.7266 14.0183C9.80811 13.9591 9.90406 13.9295 10 13.9295V1.04004Z"
        fill="#DAD9EC"
    />
</svg>